# xmcd
#
# Track frame offsets: 
#        150
#        19104
#        36220
#        52057
#        70713
#        88865
#        101440
#        114563
#        135470
#        153397
#        169635
#        190646
#
# Disc length: 2771 seconds
#
# Revision: 0
# Processed by: cddbd v1.5.2PL0 Copyright (c) Steve Scherf et al.
# Submitted via: ExactAudioCopy v0.99pb4
#
DISCID=960ad10c
DTITLE=Bagutti - Eravamo in 19
DYEAR=1900
DGENRE=
TTITLE0=Eravamo in 19
TTITLE1=Un'Anno in più
TTITLE2=Voga e va
TTITLE3=Casa mia
TTITLE4=Mi devi credere
TTITLE5=La velina
TTITLE6=Giramondo
TTITLE7=Ti ho voluto bene
TTITLE8=Lasciami cantare
TTITLE9=Gente alla buona
TTITLE10=La nostra musica
TTITLE11=Dal paradiso
EXTD=
EXTT0=
EXTT1=
EXTT2=
EXTT3=
EXTT4=
EXTT5=
EXTT6=
EXTT7=
EXTT8=
EXTT9=
EXTT10=
EXTT11=
PLAYORDER=
